<svg width="64" height="64" viewBox="0 0 64 64" fill="none" xmlns="http://www.w3.org/2000/svg">
<g clip-path="url(#clip0_1747_24111)">
<path d="M32.0569 55.3228C44.9063 55.3228 55.3228 44.9063 55.3228 32.0569C55.3228 19.2075 44.9063 8.79102 32.0569 8.79102C19.2075 8.79102 8.79102 19.2075 8.79102 32.0569C8.79102 44.9063 19.2075 55.3228 32.0569 55.3228Z" stroke="#131947" stroke-miterlimit="10"/>
<path d="M32.0577 21.5525C30.8153 21.5525 29.7988 20.536 29.7988 19.4066C29.7988 18.1643 30.8153 17.2607 32.0577 17.2607C33.1871 17.2607 34.2035 18.2772 34.2035 19.4066C34.2035 20.649 33.1871 21.5525 32.0577 21.5525ZM30.4765 46.7384V25.3925H33.5259V46.7384H30.4765Z" fill="#131947"/>
</g>
<defs>
<clipPath id="clip0_1747_24111">
<rect width="48" height="48" fill="white" transform="translate(8 8)"/>
</clipPath>
</defs>
</svg>
